<?xml version="1.0" encoding="UTF-8" standalone="no"?>
<!DOCTYPE svg PUBLIC "-//W3C//DTD SVG 1.1//EN" "http://www.w3.org/Graphics/SVG/1.1/DTD/svg11.dtd">
<svg xmlns="http://www.w3.org/2000/svg" version="1.1" viewBox="0.00 0.00 1280.00 1280.00">
<path fill="#f18f36" d="
  M 326.22 850.94
  A 0.60 0.60 0.0 0 0 325.36 850.30
  Q 292.18 866.82 255.40 870.60
  C 213.88 874.88 167.19 863.45 137.29 832.80
  C 91.93 786.30 95.58 719.42 130.49 667.97
  A 0.68 0.68 0.0 0 0 130.04 666.91
  C 67.83 656.33 29.61 597.49 29.52 537.25
  C 29.42 469.34 76.30 407.33 147.31 404.52
  A 0.39 0.39 0.0 0 0 147.51 403.81
  C 101.15 371.94 108.66 314.73 138.13 273.89
  C 179.01 217.22 253.14 180.65 323.22 186.45
  A 0.58 0.58 0.0 0 0 323.82 185.69
  C 319.18 171.11 317.43 156.14 319.31 140.79
  C 328.84 63.05 407.94 16.17 480.49 15.52
  Q 523.72 15.14 560.42 32.58
  Q 566.81 35.61 582.28 44.46
  C 624.25 68.46 653.74 124.39 652.68 172.07
  C 652.36 186.75 651.72 200.28 648.70 214.72
  Q 648.48 215.77 647.43 215.56
  C 553.50 196.54 458.57 261.69 456.74 360.44
  C 455.70 416.20 490.96 468.31 541.83 490.21
  Q 574.38 504.22 610.19 505.88
  Q 616.32 506.16 634.12 506.00
  C 637.45 505.97 642.72 505.34 647.08 505.53
  A 0.73 0.73 0.0 0 1 647.78 506.25
  L 648.08 572.32
  A 0.80 0.80 0.0 0 0 649.28 573.00
  C 696.11 545.30 757.28 552.07 796.52 589.47
  C 829.10 620.53 840.23 667.27 822.11 708.73
  C 806.14 745.27 770.05 769.38 730.60 774.37
  C 701.28 778.07 671.87 770.88 647.03 755.07
  A 0.66 0.66 0.0 0 0 646.02 755.65
  Q 647.58 817.69 648.89 879.81
  C 649.08 888.82 647.62 894.03 643.97 902.85
  Q 636.15 921.71 623.18 936.44
  C 582.05 983.14 517.88 1004.31 456.54 999.95
  C 427.28 997.87 399.77 989.25 375.71 972.18
  C 336.70 944.49 318.33 898.00 326.22 850.94
  Z"
/>
<path fill="#34b67a" d="
  M 682.40 451.18
  C 676.41 455.11 669.91 459.24 663.89 462.22
  C 622.67 482.59 573.66 479.09 536.57 452.68
  C 501.29 427.57 484.16 382.60 495.09 339.95
  C 507.82 290.29 552.58 256.64 602.78 252.47
  C 631.51 250.09 659.44 257.69 683.27 273.99
  A 0.48 0.48 0.0 0 0 684.02 273.60
  Q 683.75 219.61 683.30 165.50
  Q 683.18 152.10 684.19 145.55
  Q 687.76 122.45 703.01 103.99
  C 711.91 93.22 721.24 86.62 735.48 87.49
  C 844.10 94.18 953.15 123.86 1047.08 178.15
  C 1132.61 227.60 1207.19 300.72 1242.77 394.17
  C 1269.75 465.04 1269.78 541.62 1244.02 612.51
  C 1215.18 691.88 1155.55 759.65 1086.63 807.93
  C 1036.41 843.11 981.49 869.86 923.45 889.58
  A 1.48 1.48 0.0 0 0 922.46 891.21
  C 923.70 899.33 924.47 907.41 923.94 915.63
  C 921.16 958.49 899.92 999.29 874.37 1032.88
  C 829.31 1092.11 766.61 1139.37 694.99 1161.11
  C 692.82 1161.77 689.72 1163.41 686.53 1163.54
  A 1.27 1.24 -25.7 0 1 685.67 1163.25
  C 684.12 1161.94 684.53 1160.40 686.19 1159.42
  C 690.13 1157.09 694.52 1155.08 698.06 1152.56
  C 767.23 1103.37 796.54 1007.69 753.76 931.03
  C 753.11 929.85 752.26 929.06 750.82 928.78
  Q 718.04 922.28 690.81 902.96
  Q 689.77 902.22 689.11 900.26
  C 680.38 874.16 681.04 848.36 687.48 821.75
  Q 687.91 819.96 690.29 816.29
  Q 690.56 815.87 691.04 815.71
  Q 693.34 814.96 695.75 815.17
  Q 751.03 820.05 797.97 794.47
  C 844.78 768.96 877.21 722.88 879.20 669.00
  C 880.45 635.26 868.04 601.46 846.57 575.92
  C 808.69 530.86 747.88 510.61 690.05 519.32
  Q 687.99 519.63 686.58 519.48
  Q 686.01 519.42 685.97 518.85
  C 685.44 511.56 684.59 504.07 684.35 497.00
  Q 683.56 474.34 683.22 451.62
  A 0.53 0.53 0.0 0 0 682.40 451.18
  Z"
/>
<ellipse fill="#f18f36" cx="0.00" cy="0.00" transform="translate(539.26,1049.72) rotate(-6.1)" rx="71.49" ry="54.41"/>
<ellipse fill="#f18f36" cx="0.00" cy="0.00" transform="translate(588.95,1135.65) rotate(-18.8)" rx="43.32" ry="34.70"/>
</svg>
